# xmcd
#
# Track frame offsets:
#	150
#	21567
#	40330
#	53675
#	70232
#	89722
#	105450
#	121675
#
# Disc length: 1877
#
# Revision: 2
# Processed by: cddbd v1.5.1PL0 Copyright (c) Steve Scherf et al.
# Submitted via: ExactAudioCopy v0.90b4
# Normalized: r0:DSETVAR1,TDELIM( - ),TSWAP
#
DISCID=68075308
DTITLE=Various Artist - Play-A-Hit: 1999 - Country
DYEAR=1999
DGENRE=Country
TTITLE0=Brad Paisley - He Didn't Have To Be
TTITLE1=Kenny Chesney - She Think's My Tractor's Sexy
TTITLE2=Shane Minor - Ordinary Love
TTITLE3=Ty Herndon - Steam
TTITLE4=Gary Allan - Smoke Rings In The Dark
TTITLE5=Joe Diffie - The Quittin' Kind
TTITLE6=Lonestar - Smile
TTITLE7=Mary Chapin Carpenter - Wherever You Are
EXTD=
EXTT0=
EXTT1=
EXTT2=
EXTT3=
EXTT4=
EXTT5=
EXTT6=
EXTT7=
PLAYORDER=
